<svg width="40" height="40" viewBox="0 0 40 40" fill="none" xmlns="http://www.w3.org/2000/svg">
<path d="M33.3332 16.6667V10.3333C33.3332 9.22876 32.4377 8.33333 31.3332 8.33333H8.6665C7.56193 8.33333 6.6665 9.22876 6.6665 10.3333V16.6667M33.3332 16.6667V33C33.3332 34.1046 32.4377 35 31.3332 35H8.6665C7.56193 35 6.6665 34.1046 6.6665 33V16.6667M33.3332 16.6667H6.6665M13.3332 5V11.6667M26.6665 5V11.6667" stroke="#C7C9D9" stroke-width="2" stroke-linecap="round"/>
<rect x="10" y="20" width="5" height="5" rx="0.5" fill="#C7C9D9"/>
<rect x="17.5" y="20" width="5" height="5" rx="0.5" fill="#C7C9D9"/>
<rect x="25" y="20" width="5" height="5" rx="0.5" fill="#C7C9D9"/>
</svg>
