<svg width="40" height="40" viewBox="0 0 40 40" fill="none" xmlns="http://www.w3.org/2000/svg">
<path d="M21.6665 20.0003C21.6665 19.0799 22.4127 18.3337 23.3332 18.3337H31.6665C32.587 18.3337 33.3332 19.0799 33.3332 20.0003V31.667C33.3332 32.5875 32.587 33.3337 31.6665 33.3337H23.3332C22.4127 33.3337 21.6665 32.5875 21.6665 31.667V20.0003Z" stroke="#C7C9D9" stroke-width="3" stroke-linecap="round"/>
<path d="M6.6665 8.33366C6.6665 7.41318 7.4127 6.66699 8.33317 6.66699H14.9998C15.9203 6.66699 16.6665 7.41318 16.6665 8.33366V20.0003C16.6665 20.9208 15.9203 21.667 14.9998 21.667H8.33317C7.4127 21.667 6.6665 20.9208 6.6665 20.0003V8.33366Z" stroke="#C7C9D9" stroke-width="3" stroke-linecap="round"/>
<path d="M6.6665 28.3337C6.6665 27.4132 7.4127 26.667 8.33317 26.667H14.9998C15.9203 26.667 16.6665 27.4132 16.6665 28.3337V31.667C16.6665 32.5875 15.9203 33.3337 14.9998 33.3337H8.33317C7.4127 33.3337 6.6665 32.5875 6.6665 31.667V28.3337Z" stroke="#C7C9D9" stroke-width="3" stroke-linecap="round"/>
<path d="M21.6665 8.33366C21.6665 7.41318 22.4127 6.66699 23.3332 6.66699H31.6665C32.587 6.66699 33.3332 7.41318 33.3332 8.33366V11.667C33.3332 12.5875 32.587 13.3337 31.6665 13.3337H23.3332C22.4127 13.3337 21.6665 12.5875 21.6665 11.667V8.33366Z" stroke="#C7C9D9" stroke-width="3" stroke-linecap="round"/>
</svg>
