<svg width="40" height="40" viewBox="0 0 40 40" fill="none" xmlns="http://www.w3.org/2000/svg">
<path d="M13.4998 13.333C13.4998 14.1614 14.1714 14.833 14.9998 14.833C15.8283 14.833 16.4998 14.1614 16.4998 13.333H13.4998ZM16.4998 26.6663C16.4998 25.8379 15.8283 25.1663 14.9998 25.1663C14.1714 25.1663 13.4998 25.8379 13.4998 26.6663H16.4998ZM32.9579 31.5363L34.289 32.2277L34.289 32.2277L32.9579 31.5363ZM31.5364 32.9577L30.845 31.6266L30.845 31.6266L31.5364 32.9577ZM31.5364 7.04163L32.2279 5.71051L32.2279 5.71051L31.5364 7.04163ZM32.9579 8.46309L34.289 7.77163L34.289 7.77163L32.9579 8.46309ZM16.7966 7.04163L16.1051 5.71051L16.1051 5.71051L16.7966 7.04163ZM15.3751 8.46309L16.7062 9.15456L16.7062 9.15456L15.3751 8.46309ZM16.7966 32.9577L16.1051 34.2888L16.1051 34.2888L16.7966 32.9577ZM15.3751 31.5363L14.044 32.2277L14.044 32.2277L15.3751 31.5363ZM23.3332 21.4997C24.1616 21.4997 24.8332 20.8281 24.8332 19.9997C24.8332 19.1712 24.1616 18.4997 23.3332 18.4997L23.3332 21.4997ZM6.6665 19.9997L5.60584 18.939C5.02006 19.5248 5.02006 20.4745 5.60584 21.0603L6.6665 19.9997ZM11.8938 16.8937C12.4796 16.3079 12.4796 15.3581 11.8938 14.7723C11.308 14.1866 10.3583 14.1866 9.77251 14.7723L11.8938 16.8937ZM9.77251 25.227C10.3583 25.8128 11.308 25.8128 11.8938 25.227C12.4796 24.6412 12.4796 23.6915 11.8938 23.1057L9.77251 25.227ZM20.3665 8.16634H27.9665V5.16634H20.3665V8.16634ZM31.8332 12.033V27.9663H34.8332V12.033H31.8332ZM27.9665 31.833H20.3665V34.833H27.9665V31.833ZM16.4998 13.333V12.033H13.4998V13.333H16.4998ZM16.4998 27.9663V26.6663H13.4998V27.9663H16.4998ZM31.8332 27.9663C31.8332 28.9407 31.832 29.5797 31.7914 30.0681C31.7523 30.5385 31.6846 30.7334 31.6268 30.8448L34.289 32.2277C34.6064 31.6167 34.7264 30.9757 34.7811 30.3164C34.8344 29.675 34.8332 28.8903 34.8332 27.9663H31.8332ZM27.9665 34.833C28.8905 34.833 29.6752 34.8342 30.3165 34.781C30.9759 34.7262 31.6169 34.6062 32.2279 34.2888L30.845 31.6266C30.7335 31.6845 30.5387 31.7522 30.0683 31.7912C29.5799 31.8318 28.9408 31.833 27.9665 31.833V34.833ZM31.6268 30.8448C31.4528 31.1796 31.1798 31.4527 30.845 31.6266L32.2279 34.2888C33.1107 33.8303 33.8304 33.1105 34.289 32.2277L31.6268 30.8448ZM27.9665 8.16634C28.9408 8.16634 29.5799 8.16755 30.0683 8.20811C30.5387 8.24718 30.7335 8.31486 30.845 8.37275L32.2279 5.71051C31.6169 5.39311 30.9759 5.27315 30.3165 5.2184C29.6752 5.16514 28.8905 5.16634 27.9665 5.16634V8.16634ZM34.8332 12.033C34.8332 11.109 34.8344 10.3243 34.7811 9.68297C34.7264 9.02365 34.6064 8.38266 34.289 7.77163L31.6268 9.15456C31.6846 9.26599 31.7523 9.4608 31.7914 9.93125C31.832 10.4197 31.8332 11.0587 31.8332 12.033H34.8332ZM30.845 8.37275C31.1798 8.54669 31.4528 8.81971 31.6268 9.15456L34.289 7.77163C33.8304 6.88886 33.1107 6.16908 32.2279 5.71051L30.845 8.37275ZM20.3665 5.16634C19.4425 5.16634 18.6578 5.16514 18.0165 5.2184C17.3571 5.27315 16.7162 5.39311 16.1051 5.71051L17.4881 8.37275C17.5995 8.31486 17.7943 8.24718 18.2647 8.20811C18.7532 8.16755 19.3922 8.16634 20.3665 8.16634V5.16634ZM16.4998 12.033C16.4998 11.0587 16.501 10.4197 16.5416 9.93125C16.5807 9.4608 16.6484 9.26599 16.7062 9.15456L14.044 7.77163C13.7266 8.38266 13.6066 9.02365 13.5519 9.68297C13.4986 10.3243 13.4998 11.109 13.4998 12.033H16.4998ZM16.1051 5.71051C15.2224 6.16908 14.5026 6.88886 14.044 7.77163L16.7062 9.15456C16.8802 8.81971 17.1532 8.54669 17.4881 8.37275L16.1051 5.71051ZM20.3665 31.833C19.3922 31.833 18.7532 31.8318 18.2647 31.7912C17.7943 31.7522 17.5995 31.6845 17.4881 31.6266L16.1051 34.2888C16.7162 34.6062 17.3571 34.7262 18.0165 34.781C18.6578 34.8342 19.4425 34.833 20.3665 34.833V31.833ZM13.4998 27.9663C13.4998 28.8903 13.4986 29.675 13.5519 30.3164C13.6066 30.9757 13.7266 31.6167 14.044 32.2277L16.7062 30.8448C16.6484 30.7334 16.5807 30.5385 16.5416 30.0681C16.501 29.5797 16.4998 28.9407 16.4998 27.9663H13.4998ZM17.4881 31.6266C17.1532 31.4527 16.8802 31.1796 16.7062 30.8448L14.044 32.2277C14.5026 33.1105 15.2224 33.8303 16.1051 34.2888L17.4881 31.6266ZM23.3332 18.4997L6.6665 18.4997L6.6665 21.4997L23.3332 21.4997L23.3332 18.4997ZM7.72716 21.0603L11.8938 16.8937L9.77251 14.7723L5.60584 18.939L7.72716 21.0603ZM5.60584 21.0603L9.77251 25.227L11.8938 23.1057L7.72716 18.939L5.60584 21.0603Z" fill="#C7C9D9"/>
</svg>
