<svg width="40" height="40" viewBox="0 0 40 40" fill="none" xmlns="http://www.w3.org/2000/svg">
<path d="M5 31.6663V29.9997C5 26.3178 7.98477 23.333 11.6667 23.333H18.3333C22.0152 23.333 25 26.3178 25 29.9997V31.6663M25 18.333C27.7614 18.333 30 16.0944 30 13.333C30 10.5716 27.7614 8.33301 25 8.33301M35 31.6663V29.9997C35 26.3178 32.0152 23.333 28.3333 23.333H27.5M20 13.333C20 16.0944 17.7614 18.333 15 18.333C12.2386 18.333 10 16.0944 10 13.333C10 10.5716 12.2386 8.33301 15 8.33301C17.7614 8.33301 20 10.5716 20 13.333Z" stroke="#C7C9D9" stroke-width="3" stroke-linecap="round" stroke-linejoin="round"/>
</svg>
