<svg width="40" height="40" viewBox="0 0 40 40" fill="none" xmlns="http://www.w3.org/2000/svg">
<path d="M15.0002 8.33301H10.3335C9.22893 8.33301 8.3335 9.22844 8.3335 10.333V32.9997C8.3335 34.1042 9.22893 34.9997 10.3335 34.9997H15.0002M25.0002 8.33301H29.6668C30.7714 8.33301 31.6668 9.22844 31.6668 10.333V14.9997" stroke="#C7C9D9" stroke-width="3" stroke-linecap="round" stroke-linejoin="round"/>
<path d="M25.0346 33.8509L21.1922 34.6194L21.9606 30.777C21.9994 30.5834 22.0945 30.4056 22.2341 30.266L29.1667 23.3333L32.5 20L35.8114 23.3114L32.4781 26.6448L25.5456 33.5775C25.406 33.7171 25.2282 33.8122 25.0346 33.8509Z" stroke="#C7C9D9" stroke-width="3" stroke-linecap="round" stroke-linejoin="round"/>
<path d="M15 7C15 5.89543 15.8954 5 17 5H23C24.1046 5 25 5.89543 25 7V11.6667H15V7Z" stroke="#C7C9D9" stroke-width="3" stroke-linecap="round" stroke-linejoin="round"/>
</svg>
